<svg xmlns="http://www.w3.org/2000/svg" xmlns:xlink="http://www.w3.org/1999/xlink" width="1867pt" height="491pt" viewBox="0.00 0.00 1866.92 491.00">
<g id="graph0" class="graph" transform="scale(1 1) rotate(0) translate(4 487)">
<title>UML_Diagram</title>
<polygon fill="white" stroke="none" points="-4,4 -4,-487 1862.92,-487 1862.92,4 -4,4"/>
<!-- Schedulable -->
<g id="node1" class="node">
<title>Schedulable</title>
<polygon fill="none" stroke="black" points="498,-382.9 498,-474.1 943.77,-474.1 943.77,-382.9 498,-382.9"/>
<text text-anchor="middle" x="720.88" y="-457.5" font-family="Times,serif" font-size="14.00">Schedulable (interface)</text>
<polyline fill="none" stroke="black" points="498,-449.3 943.77,-449.3"/>
<text text-anchor="middle" x="720.88" y="-432.7" font-family="Times,serif" font-size="14.00"> </text>
<polyline fill="none" stroke="black" points="498,-424.5 943.77,-424.5"/>
<text text-anchor="start" x="506" y="-407.9" font-family="Times,serif" font-size="14.00">+ bookAppointment(date: String, time: String, serviceType: String): boolean</text>
<text text-anchor="start" x="506" y="-391.1" font-family="Times,serif" font-size="14.00">+ cancelAppointment(appointmentID: int): boolean</text>
</g>
<!-- Customer -->
<g id="node3" class="node">
<title>Customer</title>
<polygon fill="none" stroke="black" points="988,-212.7 988,-303.9 1433.77,-303.9 1433.77,-212.7 988,-212.7"/>
<text text-anchor="middle" x="1210.88" y="-287.3" font-family="Times,serif" font-size="14.00">Customer</text>
<polyline fill="none" stroke="black" points="988,-279.1 1433.77,-279.1"/>
<text text-anchor="middle" x="1210.88" y="-262.5" font-family="Times,serif" font-size="14.00"> </text>
<polyline fill="none" stroke="black" points="988,-254.3 1433.77,-254.3"/>
<text text-anchor="start" x="996" y="-237.7" font-family="Times,serif" font-size="14.00">+ bookAppointment(date: String, time: String, serviceType: String): boolean</text>
<text text-anchor="start" x="996" y="-220.9" font-family="Times,serif" font-size="14.00">+ cancelAppointment(appointmentID: int): boolean</text>
</g>
<!-- Schedulable&#45;&gt;Customer -->
<g id="edge3" class="edge">
<title>Schedulable-&gt;Customer</title>
<path fill="none" stroke="black" stroke-dasharray="5,2" d="M835.98,-382.46C873.61,-368.15 915.71,-352.58 954.56,-339.2 985.35,-328.6 1018.42,-317.83 1050.23,-307.78"/>
<polygon fill="none" stroke="black" points="1051.04,-311.2 1059.52,-304.85 1048.93,-304.52 1051.04,-311.2"/>
<text text-anchor="middle" x="987.22" y="-343.4" font-family="Times,serif" font-size="14.00">implements</text>
</g>
<!-- Admin -->
<g id="node4" class="node">
<title>Admin</title>
<polygon fill="none" stroke="black" points="0,-195.9 0,-320.7 445.77,-320.7 445.77,-195.9 0,-195.9"/>
<text text-anchor="middle" x="222.88" y="-304.1" font-family="Times,serif" font-size="14.00">Admin</text>
<polyline fill="none" stroke="black" points="0,-295.9 445.77,-295.9"/>
<text text-anchor="middle" x="222.88" y="-279.3" font-family="Times,serif" font-size="14.00"> </text>
<polyline fill="none" stroke="black" points="0,-271.1 445.77,-271.1"/>
<text text-anchor="start" x="8" y="-254.5" font-family="Times,serif" font-size="14.00">+ bookAppointment(date: String, time: String, serviceType: String): boolean</text>
<text text-anchor="start" x="8" y="-237.7" font-family="Times,serif" font-size="14.00">+ cancelAppointment(appointmentID: int): boolean</text>
<text text-anchor="start" x="8" y="-220.9" font-family="Times,serif" font-size="14.00">+ viewAllAppointments(): List&lt;Appointment&gt;</text>
<text text-anchor="start" x="8" y="-204.1" font-family="Times,serif" font-size="14.00">+ manageAppointments(): boolean</text>
</g>
<!-- Schedulable&#45;&gt;Admin -->
<g id="edge4" class="edge">
<title>Schedulable-&gt;Admin</title>
<path fill="none" stroke="black" stroke-dasharray="5,2" d="M587.43,-382.43C534.95,-364.7 473.66,-344 416.49,-324.69"/>
<polygon fill="none" stroke="black" points="417.89,-321.47 407.29,-321.58 415.65,-328.1 417.89,-321.47"/>
<text text-anchor="middle" x="534.36" y="-343.4" font-family="Times,serif" font-size="14.00">implements</text>
</g>
<!-- Person -->
<g id="node2" class="node">
<title>Person</title>
<polygon fill="none" stroke="black" points="1071.45,-374.5 1071.45,-482.5 1200.32,-482.5 1200.32,-374.5 1071.45,-374.5"/>
<text text-anchor="middle" x="1135.88" y="-465.9" font-family="Times,serif" font-size="14.00">Person (abstract)</text>
<polyline fill="none" stroke="black" points="1071.45,-457.7 1200.32,-457.7"/>
<text text-anchor="start" x="1079.45" y="-441.1" font-family="Times,serif" font-size="14.00">- name: String</text>
<text text-anchor="start" x="1079.45" y="-424.3" font-family="Times,serif" font-size="14.00">- email: String</text>
<polyline fill="none" stroke="black" points="1071.45,-416.1 1200.32,-416.1"/>
<text text-anchor="start" x="1079.45" y="-399.5" font-family="Times,serif" font-size="14.00">+ getName(): String</text>
<text text-anchor="start" x="1079.45" y="-382.7" font-family="Times,serif" font-size="14.00">+ getEmail(): String</text>
</g>
<!-- Person&#45;&gt;Customer -->
<g id="edge1" class="edge">
<title>Person-&gt;Customer</title>
<path fill="none" stroke="black" d="M1159.61,-374.28C1168.09,-355.28 1177.65,-333.83 1186.2,-314.66"/>
<polygon fill="none" stroke="black" points="1189.34,-316.2 1190.22,-305.65 1182.95,-313.35 1189.34,-316.2"/>
<text text-anchor="middle" x="1194.77" y="-343.4" font-family="Times,serif" font-size="14.00">extends</text>
</g>
<!-- Person&#45;&gt;Admin -->
<g id="edge2" class="edge">
<title>Person-&gt;Admin</title>
<path fill="none" stroke="black" d="M1080.19,-374.11C1062.29,-360.15 1041.47,-346.87 1019.88,-339.2 963.3,-319.1 555.28,-329.35 457.62,-321.11"/>
<polygon fill="none" stroke="black" points="458.01,-317.64 447.68,-320.02 457.24,-324.59 458.01,-317.64"/>
<text text-anchor="middle" x="1073.36" y="-343.4" font-family="Times,serif" font-size="14.00">extends</text>
</g>
<!-- Appointment -->
<g id="node5" class="node">
<title>Appointment</title>
<polygon fill="none" stroke="black" points="684.23,-0.5 684.23,-142.1 821.54,-142.1 821.54,-0.5 684.23,-0.5"/>
<text text-anchor="middle" x="752.88" y="-125.5" font-family="Times,serif" font-size="14.00">Appointment</text>
<polyline fill="none" stroke="black" points="684.23,-117.3 821.54,-117.3"/>
<text text-anchor="start" x="692.23" y="-100.7" font-family="Times,serif" font-size="14.00">- appointmentID: int</text>
<text text-anchor="start" x="692.23" y="-83.9" font-family="Times,serif" font-size="14.00">- customer: Customer</text>
<text text-anchor="start" x="692.23" y="-67.1" font-family="Times,serif" font-size="14.00">- serviceType: String</text>
<text text-anchor="start" x="692.23" y="-50.3" font-family="Times,serif" font-size="14.00">- date: String</text>
<text text-anchor="start" x="692.23" y="-33.5" font-family="Times,serif" font-size="14.00">- time: String</text>
<polyline fill="none" stroke="black" points="684.23,-25.3 821.54,-25.3"/>
<text text-anchor="start" x="692.23" y="-8.7" font-family="Times,serif" font-size="14.00">+ getDetails(): String</text>
</g>
<!-- Customer&#45;&gt;Appointment -->
<g id="edge5" class="edge">
<title>Customer-&gt;Appointment</title>
<path fill="none" stroke="black" d="M1099.43,-212.28C1016.74,-178.88 905.98,-134.14 832.17,-104.33"/>
<polygon fill="black" stroke="black" points="823.14,-100.68 834.1,-100.25 826.64,-102.09 832.41,-104.42 832.41,-104.42 832.41,-104.42 826.64,-102.09 830.72,-108.6 823.14,-100.68"/>
<text text-anchor="middle" x="1026.03" y="-164.8" font-family="Times,serif" font-size="14.00">books</text>
</g>
<!-- AppointmentManager -->
<g id="node6" class="node">
<title>AppointmentManager</title>
<polygon fill="none" stroke="black" points="463.68,-208.3 463.68,-308.3 970.09,-308.3 970.09,-208.3 463.68,-208.3"/>
<text text-anchor="middle" x="716.88" y="-291.7" font-family="Times,serif" font-size="14.00">AppointmentManager</text>
<polyline fill="none" stroke="black" points="463.68,-283.5 970.09,-283.5"/>
<polyline fill="none" stroke="black" points="463.68,-283.5 970.09,-283.5"/>
<text text-anchor="start" x="471.68" y="-266.9" font-family="Times,serif" font-size="14.00">+ addAppointment(appointment: Appointment): boolean</text>
<text text-anchor="start" x="471.68" y="-250.1" font-family="Times,serif" font-size="14.00">+ updateAppointment(appointmentID: int, newDate: String, newTime: String): boolean</text>
<text text-anchor="start" x="471.68" y="-233.3" font-family="Times,serif" font-size="14.00">+ deleteAppointment(appointmentID: int): boolean</text>
<text text-anchor="start" x="471.68" y="-216.5" font-family="Times,serif" font-size="14.00">+ findAppointment(appointmentID: int): Appointment</text>
</g>
<!-- AppointmentManager&#45;&gt;Appointment -->
<g id="edge6" class="edge">
<title>AppointmentManager-&gt;Appointment</title>
<path fill="none" stroke="black" d="M726.44,-208.21C729.71,-191.39 733.47,-172.09 737.1,-153.41"/>
<polygon fill="black" stroke="black" points="738.99,-143.71 741.49,-154.39 738.27,-147.42 737.08,-153.53 737.08,-153.53 737.08,-153.53 738.27,-147.42 732.66,-152.67 738.99,-143.71"/>
<text text-anchor="middle" x="759.37" y="-164.8" font-family="Times,serif" font-size="14.00">manages</text>
</g>
<!-- DoubleBookingException -->
<g id="node7" class="node">
<title>DoubleBookingException</title>
<polygon fill="none" stroke="black" points="1272.9,-391.3 1272.9,-465.7 1544.87,-465.7 1544.87,-391.3 1272.9,-391.3"/>
<text text-anchor="middle" x="1408.88" y="-449.1" font-family="Times,serif" font-size="14.00">DoubleBookingException</text>
<polyline fill="none" stroke="black" points="1272.9,-440.9 1544.87,-440.9"/>
<text text-anchor="middle" x="1408.88" y="-424.3" font-family="Times,serif" font-size="14.00"> </text>
<polyline fill="none" stroke="black" points="1272.9,-416.1 1544.87,-416.1"/>
<text text-anchor="start" x="1280.9" y="-399.5" font-family="Times,serif" font-size="14.00">+ DoubleBookingException(message: String)</text>
</g>
<!-- Exception -->
<g id="node9" class="node">
<title>Exception</title>
<polygon fill="none" stroke="black" points="1600.5,-240.3 1600.5,-276.3 1673.26,-276.3 1673.26,-240.3 1600.5,-240.3"/>
<text text-anchor="middle" x="1636.88" y="-254.1" font-family="Times,serif" font-size="14.00">Exception</text>
</g>
<!-- DoubleBookingException&#45;&gt;Exception -->
<g id="edge7" class="edge">
<title>DoubleBookingException-&gt;Exception</title>
<path fill="none" stroke="black" stroke-dasharray="5,2" d="M1458.36,-391C1502.55,-358.4 1566.03,-311.57 1604.18,-283.43"/>
<polygon fill="none" stroke="black" points="1606.12,-286.35 1612.09,-277.59 1601.96,-280.71 1606.12,-286.35"/>
<text text-anchor="middle" x="1544.27" y="-343.4" font-family="Times,serif" font-size="14.00">extends</text>
</g>
<!-- InvalidAppointmentException -->
<g id="node8" class="node">
<title>InvalidAppointmentException</title>
<polygon fill="none" stroke="black" points="1562.85,-391.3 1562.85,-465.7 1858.92,-465.7 1858.92,-391.3 1562.85,-391.3"/>
<text text-anchor="middle" x="1710.88" y="-449.1" font-family="Times,serif" font-size="14.00">InvalidAppointmentException</text>
<polyline fill="none" stroke="black" points="1562.85,-440.9 1858.92,-440.9"/>
<text text-anchor="middle" x="1710.88" y="-424.3" font-family="Times,serif" font-size="14.00"> </text>
<polyline fill="none" stroke="black" points="1562.85,-416.1 1858.92,-416.1"/>
<text text-anchor="start" x="1570.85" y="-399.5" font-family="Times,serif" font-size="14.00">+ InvalidAppointmentException(message: String)</text>
</g>
<!-- InvalidAppointmentException&#45;&gt;Exception -->
<g id="edge8" class="edge">
<title>InvalidAppointmentException-&gt;Exception</title>
<path fill="none" stroke="black" stroke-dasharray="5,2" d="M1694.83,-391C1681.09,-359.78 1661.62,-315.52 1649.12,-287.1"/>
<polygon fill="none" stroke="black" points="1652.38,-285.82 1645.15,-278.08 1645.97,-288.64 1652.38,-285.82"/>
<text text-anchor="middle" x="1699.7" y="-343.4" font-family="Times,serif" font-size="14.00">extends</text>
</g>
</g>
</svg>